<svg
    width="80%"
    version="1.1"
    viewBox="0.0 0.0 576.6981627296587 132.85826771653544"
    fill="none"
    stroke="none"
    stroke-linecap="square"
    stroke-miterlimit="10"
    xmlns:xlink="http://www.w3.org/1999/xlink"
    xmlns="http://www.w3.org/2000/svg"
  ><clipPath id="p.0"><path
    d="m0 0l576.6982 0l0 132.85826l-576.6982 0l0 -132.85826z"
    clip-rule="nonzero"
  /></clipPath><g clip-path="url(#p.0)"><path
    fill="#000000"
    fill-opacity="0.0"
    d="m0 0l576.6982 0l0 132.85826l-576.6982 0z"
    fill-rule="evenodd"
  /><path
    fill="#000000"
    fill-opacity="0.0"
    d="m5.8241467 13.343832l676.31494 0l0 105.03937l-676.31494 0z"
    fill-rule="evenodd"
  /><path
    fill="#434343"
    d="m26.980396 90.18383q-2.328125 0 -4.28125 -1.15625q-1.9375 -1.171875 -3.109375 -3.109375q-1.15625 -1.953125 -1.15625 -4.28125l0 -23.890625q0 -2.328125 1.15625 -4.265625q1.171875 -1.953125 3.109375 -3.109375q1.953125 -1.171875 4.28125 -1.171875l24.578125 0q2.40625 0 4.34375 1.171875q1.953125 1.15625 3.109375 3.109375q1.171875 1.9375 1.171875 4.265625l0 14.84375l-35.96875 0l0 9.046875q0 1.125 0.8125 1.9375q0.8125 0.8125 1.953125 0.8125l33.203125 0l0 5.796875l-33.203125 0l0 0zm-2.765625 -23.390625l30.109375 0l0 -9.046875q0 -1.125 -0.8125 -1.9375q-0.8125 -0.8125 -1.953125 -0.8125l-24.578125 0q-1.140625 0 -1.953125 0.8125q-0.8125 0.8125 -0.8125 1.9375l0 9.046875zm50.308964 23.390625q-2.328125 0 -4.28125 -1.15625q-1.9375 -1.171875 -3.109375 -3.109375q-1.15625 -1.953125 -1.15625 -4.28125l0 -45.859375l5.796875 0l0 45.859375q0 1.125 0.8125 1.9375q0.8125 0.8125 1.9375 0.8125l6.921875 0l0 5.796875l-6.921875 0l0 0zm20.215698 0q-2.328125 0 -4.28125 -1.15625q-1.9375 -1.171875 -3.109375 -3.109375q-1.15625 -1.953125 -1.15625 -4.28125l0 -23.890625q0 -2.328125 1.15625 -4.265625q1.171875 -1.953125 3.109375 -3.109375q1.953125 -1.171875 4.28125 -1.171875l24.578125 0q2.40625 0 4.34375 1.171875q1.953125 1.15625 3.109375 3.109375q1.171875 1.9375 1.171875 4.265625l0 14.84375l-35.96875 0l0 9.046875q0 1.125 0.8125 1.9375q0.8125 0.8125 1.953125 0.8125l33.203125 0l0 5.796875l-33.203125 0l0 0zm-2.765625 -23.390625l30.109375 0l0 -9.046875q0 -1.125 -0.8125 -1.9375q-0.8125 -0.8125 -1.953125 -0.8125l-24.578125 0q-1.140625 0 -1.953125 0.8125q-0.8125 0.8125 -0.8125 1.9375l0 9.046875zm43.316032 23.390625l0 0l0 -40.984375l54.125 0q2.40625 0 4.34375 1.171875q1.953125 1.15625 3.078125 3.109375q1.125 1.9375 1.125 4.265625l0 32.4375l-5.71875 0l0 -32.4375q0 -1.125 -0.859375 -1.9375q-0.84375 -0.8125 -1.96875 -0.8125l-17.03125 0q-1.125 0 -1.9375 0.8125q-0.8125 0.8125 -0.8125 1.9375l0 32.4375l-5.859375 0l0 -32.4375q0 -1.125 -0.8125 -1.9375q-0.8125 -0.8125 -1.953125 -0.8125l-17.09375 0q-1.125 0 -1.9375 0.8125q-0.8125 0.8125 -0.8125 1.9375l0 32.4375l-5.875 0zm77.44562 0q-2.328125 0 -4.28125 -1.15625q-1.9375 -1.171875 -3.109375 -3.109375q-1.15625 -1.953125 -1.15625 -4.28125l0 -23.890625q0 -2.328125 1.15625 -4.265625q1.171875 -1.953125 3.109375 -3.109375q1.953125 -1.171875 4.28125 -1.171875l24.578125 0q2.40625 0 4.34375 1.171875q1.953125 1.15625 3.109375 3.109375q1.171875 1.9375 1.171875 4.265625l0 14.84375l-35.96875 0l0 9.046875q0 1.125 0.8125 1.9375q0.8125 0.8125 1.953125 0.8125l33.203125 0l0 5.796875l-33.203125 0l0 0zm-2.765625 -23.390625l30.109375 0l0 -9.046875q0 -1.125 -0.8125 -1.9375q-0.8125 -0.8125 -1.953125 -0.8125l-24.578125 0q-1.140625 0 -1.953125 0.8125q-0.8125 0.8125 -0.8125 1.9375l0 9.046875zm43.31604 23.390625l0 0l0 -40.984375l33.218765 0q2.328125 0 4.265625 1.171875q1.9375 1.15625 3.109375 3.109375q1.171875 1.9375 1.171875 4.265625l0 32.4375l-5.796875 0l0 -32.4375q0 -1.125 -0.8125 -1.9375q-0.8125 -0.8125 -1.9375 -0.8125l-24.59375 0q-1.125 0 -1.984375 0.8125q-0.84375 0.8125 -0.84375 1.9375l0 32.4375l-5.7968903 0zm57.66118 0q-2.40625 0 -4.359375 -1.15625q-1.9375 -1.171875 -3.0625 -3.109375q-1.125 -1.953125 -1.125 -4.28125l0 -45.859375l5.78125 0l0 13.421875l17.734375 0l0 5.796875l-17.734375 0l0 26.640625q0 1.125 0.8125 1.9375q0.8125 0.8125 1.953125 0.8125l14.96875 0l0 5.796875l-14.96875 0l0 0zm155.01425 0l0 0l0 -40.984375l33.21875 0q2.328125 0 4.265625 1.171875q1.9375 1.15625 3.109375 3.109375q1.171875 1.9375 1.171875 4.265625l0 32.4375l-5.796875 0l0 -32.4375q0 -1.125 -0.8125 -1.9375q-0.8125 -0.8125 -1.9375 -0.8125l-24.59375 0q-1.125 0 -1.984375 0.8125q-0.84375 0.8125 -0.84375 1.9375l0 32.4375l-5.796875 0zm57.52057 0q-2.328125 0 -4.28125 -1.15625q-1.937561 -1.171875 -3.109436 -3.109375q-1.15625 -1.953125 -1.15625 -4.28125l0 -23.890625q0 -2.328125 1.15625 -4.265625q1.171875 -1.953125 3.109436 -3.109375q1.953125 -1.171875 4.28125 -1.171875l24.578125 0q2.40625 0 4.34375 1.171875q1.953125 1.15625 3.109375 3.109375q1.171875 1.9375 1.171875 4.265625l0 14.84375l-35.96875 0l0 9.046875q0 1.125 0.8125 1.9375q0.8125 0.8125 1.953125 0.8125l33.203125 0l0 5.796875l-33.203125 0l0 0zm-2.765625 -23.390625l30.109375 0l0 -9.046875q0 -1.125 -0.8125 -1.9375q-0.8125 -0.8125 -1.953125 -0.8125l-24.578125 0q-1.140625 0 -1.953125 0.8125q-0.8125 0.8125 -0.8125 1.9375l0 9.046875z"
    fill-rule="nonzero"
  /><path
    fill="#000000"
    fill-opacity="0.0"
    d="m339.02606 65.86294l0 0c0 -31.20625 25.297668 -56.503906 56.503906 -56.503906l0 0c14.985779 0 29.357758 5.9530725 39.954315 16.549612c10.596527 10.596539 16.549622 24.968529 16.549622 39.954296l0 0c0 31.206245 -25.297668 56.503906 -56.503937 56.503906l0 0c-31.206238 0 -56.503906 -25.29766 -56.503906 -56.503906z"
    fill-rule="evenodd"
  /><path
    stroke="#434343"
    stroke-width="4.0"
    stroke-linejoin="round"
    stroke-linecap="butt"
    d="m339.02606 65.86294l0 0c0 -31.20625 25.297668 -56.503906 56.503906 -56.503906l0 0c14.985779 0 29.357758 5.9530725 39.954315 16.549612c10.596527 10.596539 16.549622 24.968529 16.549622 39.954296l0 0c0 31.206245 -25.297668 56.503906 -56.503937 56.503906l0 0c-31.206238 0 -56.503906 -25.29766 -56.503906 -56.503906z"
    fill-rule="evenodd"
  /><path
    fill="#434343"
    d="m349.95142 22.509026l0 0c0 -5.062193 4.0994263 -9.165912 9.156311 -9.165912l0 0c2.4284058 0 4.7573547 0.96569157 6.4744873 2.6846342c1.7171326 1.7189407 2.6818237 4.0503273 2.6818237 6.4812775l0 0c0 5.062193 -4.0994263 9.165913 -9.156311 9.165913l0 0c-5.056885 0 -9.156311 -4.1037197 -9.156311 -9.165913z"
    fill-rule="evenodd"
  /><path
    stroke="#434343"
    stroke-width="4.0"
    stroke-linejoin="round"
    stroke-linecap="butt"
    d="m349.95142 22.509026l0 0c0 -5.062193 4.0994263 -9.165912 9.156311 -9.165912l0 0c2.4284058 0 4.7573547 0.96569157 6.4744873 2.6846342c1.7171326 1.7189407 2.6818237 4.0503273 2.6818237 6.4812775l0 0c0 5.062193 -4.0994263 9.165913 -9.156311 9.165913l0 0c-5.056885 0 -9.156311 -4.1037197 -9.156311 -9.165913z"
    fill-rule="evenodd"
  /><path
    fill="#434343"
    d="m379.96524 65.86294l0 0c0 -8.601486 6.968567 -15.574364 15.564728 -15.574364l0 0c4.1280518 0 8.087006 1.6408653 11.005951 4.5616226c2.9189758 2.920761 4.5588074 6.88216 4.5588074 11.012741l0 0c0 8.601486 -6.968567 15.574364 -15.564758 15.574364l0 0c-8.596161 0 -15.564728 -6.9728775 -15.564728 -15.574364z"
    fill-rule="evenodd"
  /></g></svg>