<svg xmlns="http://www.w3.org/2000/svg" version="1.1" xmlns:xlink="http://www.w3.org/1999/xlink" xmlns:svgjs="http://svgjs.com/svgjs" width="1000" height="1000"><g transform="matrix(7.5376884422110555,0,0,7.5376884422110555,39.23159246606082,-0.000016626201500002935)"><svg xmlns="http://www.w3.org/2000/svg" version="1.1" xmlns:xlink="http://www.w3.org/1999/xlink" xmlns:svgjs="http://svgjs.com/svgjs" width="122.25721784776903" height="132.66666666666666"><svg version="1.1" viewBox="0.0 0.0 122.25721784776903 132.66666666666666" fill="none" stroke="none" stroke-linecap="square" stroke-miterlimit="10" xmlns:xlink="http://www.w3.org/1999/xlink" xmlns="http://www.w3.org/2000/svg"><clipPath id="p.0"><path d="m0 0l122.25722 0l0 132.66667l-122.25722 0l0 -132.66667z" clip-rule="nonzero"></path></clipPath><g clip-path="url(#p.0)"><path fill="#000000" fill-opacity="0.0" d="m0 0l122.25722 0l0 132.66667l-122.25722 0z" fill-rule="evenodd"></path><path fill="#000000" fill-opacity="0.0" d="m4.4670205 66.42855l0 0c0 -31.206242 25.29766 -56.503906 56.503906 -56.503906l0 0c14.985767 0 29.357754 5.9530735 39.954296 16.549612c10.596535 10.596539 16.549614 24.968529 16.549614 39.954292l0 0c0 31.206245 -25.29766 56.503906 -56.50391 56.503906l0 0c-31.206247 0 -56.503906 -25.29766 -56.503906 -56.503906z" fill-rule="evenodd"></path><path stroke="#434343" stroke-width="4.0" stroke-linejoin="round" stroke-linecap="butt" d="m4.4670205 66.42855l0 0c0 -31.206242 25.29766 -56.503906 56.503906 -56.503906l0 0c14.985767 0 29.357754 5.9530735 39.954296 16.549612c10.596535 10.596539 16.549614 24.968529 16.549614 39.954292l0 0c0 31.206245 -25.29766 56.503906 -56.50391 56.503906l0 0c-31.206247 0 -56.503906 -25.29766 -56.503906 -56.503906z" fill-rule="evenodd"></path><path fill="#434343" d="m15.392376 23.074642l0 0c0 -5.062193 4.0994167 -9.165912 9.156303 -9.165912l0 0c2.4284039 0 4.757345 0.96569157 6.4744854 2.6846342c1.7171383 1.7189407 2.681818 4.0503273 2.681818 6.4812775l0 0c0 5.062193 -4.099415 9.165913 -9.156303 9.165913l0 0c-5.0568867 0 -9.156303 -4.1037197 -9.156303 -9.165913z" fill-rule="evenodd"></path><path stroke="#434343" stroke-width="4.0" stroke-linejoin="round" stroke-linecap="butt" d="m15.392376 23.074642l0 0c0 -5.062193 4.0994167 -9.165912 9.156303 -9.165912l0 0c2.4284039 0 4.757345 0.96569157 6.4744854 2.6846342c1.7171383 1.7189407 2.681818 4.0503273 2.681818 6.4812775l0 0c0 5.062193 -4.099415 9.165913 -9.156303 9.165913l0 0c-5.0568867 0 -9.156303 -4.1037197 -9.156303 -9.165913z" fill-rule="evenodd"></path><path fill="#434343" d="m45.406174 66.65296l0 0c0 -8.601482 6.9685783 -15.574364 15.5647545 -15.574364l0 0c4.1280327 0 8.086987 1.6408653 11.005947 4.5616264c2.918953 2.920761 4.5588074 6.88216 4.5588074 11.012737l0 0c0 8.601486 -6.9685745 15.574364 -15.5647545 15.574364l0 0c-8.596176 0 -15.5647545 -6.9728775 -15.5647545 -15.574364z" fill-rule="evenodd"></path><path stroke="#434343" stroke-width="4.0" stroke-linejoin="round" stroke-linecap="butt" d="m45.406174 66.65296l0 0c0 -8.601482 6.9685783 -15.574364 15.5647545 -15.574364l0 0c4.1280327 0 8.086987 1.6408653 11.005947 4.5616264c2.918953 2.920761 4.5588074 6.88216 4.5588074 11.012737l0 0c0 8.601486 -6.9685745 15.574364 -15.5647545 15.574364l0 0c-8.596176 0 -15.5647545 -6.9728775 -15.5647545 -15.574364z" fill-rule="evenodd"></path></g></svg></svg></g></svg>